<?xml version="1.0" encoding="UTF-8"?>
<svg xmlns="http://www.w3.org/2000/svg" width="45" height="45" viewBox="0 0 45 45">
  <defs>
    <linearGradient id="body" x1="0%" y1="0%" x2="0%" y2="100%">
      <stop offset="0%" stop-color="#fffdf9"/>
      <stop offset="48%" stop-color="#f3e4c2"/>
      <stop offset="100%" stop-color="#c7904b"/>
    </linearGradient>
    <linearGradient id="trim" x1="0%" y1="0%" x2="0%" y2="100%">
      <stop offset="0%" stop-color="#f9efcb"/>
      <stop offset="100%" stop-color="#a66d2d"/>
    </linearGradient>
  </defs>
  <ellipse cx="22.5" cy="40.2" rx="11.6" ry="2.2" fill="#000000" opacity="0.14"/>
  <g fill="none" stroke="#3b2718" stroke-width="1.45" stroke-linecap="round" stroke-linejoin="round">
    <path fill="url(#body)" d="M22.5 8.8c-2.4 0-4.3 1.9-4.3 4.3 0 1 .3 1.9.9 2.7-2.2 1.3-3.8 3.6-3.8 6.2 0 2.3 1.1 4.4 2.8 5.7-3.4 1.4-7 5.2-7 11.2h23c0-6-3.6-9.8-7-11.2 1.7-1.3 2.8-3.4 2.8-5.7 0-2.6-1.6-4.9-3.8-6.2.6-.8.9-1.7.9-2.7 0-2.4-1.9-4.3-4.3-4.3z"/>
    <path fill="url(#trim)" d="M19.1 12.6c1.9 1 4.9 1 6.8 0 .2 1.3-.3 2.6-1.1 3.5-1.6.6-3.4.6-4.9 0-.9-.9-1.3-2.2-1.1-3.5z"/>
    <path d="M17.8 17.6c1.8.9 5.6.9 7.4 0" stroke="#fff8e3" stroke-opacity="0.8"/>
    <path d="M17.2 27.2c3.4 1.3 7.2 1.3 10.6 0" stroke="url(#trim)"/>
    <path d="M14.7 33.3c5.1-1.5 10.5-1.5 15.6 0" stroke="#fff8e3" stroke-opacity="0.7"/>
    <path d="M15.1 36.6c4.9-1.2 9.9-1.2 14.8 0" stroke="url(#trim)"/>
    <circle cx="22.5" cy="12.2" r="1.2" fill="#8e1e31" stroke="#53121d" stroke-width="0.45"/>
  </g>
</svg>
